<svg xmlns="http://www.w3.org/2000/svg" version="1.1" xmlns:xlink="http://www.w3.org/1999/xlink" width="200" height="200"><svg xmlns="http://www.w3.org/2000/svg" version="1.1" xmlns:xlink="http://www.w3.org/1999/xlink" viewBox="0 0 200 200"><rect width="200" height="200" fill="url('#gradient')"></rect><defs><linearGradient id="SvgjsLinearGradient1001" gradientTransform="rotate(45 0.5 0.5)"><stop offset="0%" stop-color="#b0d8cf"></stop><stop offset="100%" stop-color="#28819e"></stop></linearGradient></defs><g><g fill="#f6ebbc" transform="matrix(5.408450704225352,0,0,5.408450704225352,6.869684762518176,138.45834290813391)" stroke="#dba545" stroke-width="0.2"><path d="M9.56-14.22L9.56-5.56L11.01-5.56L11.01-3.02L9.56-3.02L9.56 0L6.27 0L6.27-3.02L0.77-3.02L0.58-5.03L6.27-14.19L6.27-14.22L9.56-14.22ZM6.06-9.60L3.71-5.56L6.27-5.56L6.27-9.93L6.06-9.60ZM22.37-2.54L22.37 0L12.45 0L12.45-2.15L17.02-6.95Q18.71-8.88 18.71-10.01L18.71-10.01Q18.71-10.93 18.31-11.41Q17.91-11.88 17.15-11.88L17.15-11.88Q16.40-11.88 15.93-11.25Q15.46-10.61 15.46-9.65L15.46-9.65L12.16-9.65Q12.16-10.96 12.81-12.07Q13.47-13.17 14.63-13.80Q15.79-14.42 17.23-14.42L17.23-14.42Q19.53-14.42 20.78-13.36Q22.02-12.29 22.02-10.30L22.02-10.30Q22.02-9.46 21.71-8.67Q21.40-7.87 20.74-7.00Q20.08-6.12 18.61-4.66L18.61-4.66L16.78-2.54L22.37-2.54ZM30.52-5.50L30.52-5.50Q29.45-4.54 28.13-4.54L28.13-4.54Q26.20-4.54 25.07-5.85Q23.94-7.16 23.94-9.35L23.94-9.35Q23.94-10.71 24.57-11.88Q25.21-13.06 26.35-13.74Q27.50-14.42 28.89-14.42L28.89-14.42Q30.29-14.42 31.43-13.72Q32.57-13.01 33.20-11.71Q33.84-10.42 33.86-8.73L33.86-8.73L33.86-7.47Q33.86-5.12 32.93-3.39Q32.01-1.66 30.30-0.73Q28.59 0.20 26.32 0.20L26.32 0.20L26.11 0.20L26.11-2.44L26.74-2.45Q30.14-2.62 30.52-5.50ZM29.02-6.91L29.02-6.91Q30.10-6.91 30.57-7.84L30.57-7.84L30.57-9.21Q30.57-10.58 30.11-11.23Q29.65-11.88 28.87-11.88L28.87-11.88Q28.17-11.88 27.71-11.14Q27.24-10.40 27.24-9.35L27.24-9.35Q27.24-8.23 27.71-7.57Q28.19-6.91 29.02-6.91Z"></path></g></g></svg><style>@media (prefers-color-scheme: light) { :root { filter: none; } }
@media (prefers-color-scheme: dark) { :root { filter: none; } }
</style></svg>